<svg xmlns="http://www.w3.org/2000/svg" viewBox="0 0 72 72">
  <g fill="#fff">
    <rect x="11" y="11" width="50" height="50" rx="4" ry="4" stroke="#000" stroke-width="2"/>
    <line x1="20" y1="22" x2="52" y2="22" stroke="#000" stroke-width="2"/>
    <line x1="20" y1="28" x2="52" y2="28" stroke="#000" stroke-width="2"/>
    <line x1="20" y1="34" x2="52" y2="34" stroke="#000" stroke-width="2"/>
  </g>
  <path d="M17,17v-2a1,1,0,0,1,1-1h2a1,1,0,0,1,1,1v2a1,1,0,0,1-1,1h-2A1,1,0,0,1,17,17Zm7,0v-2a1,1,0,0,1,1-1h2a1,1,0,0,1,1,1v2a1,1,0,0,1-1,1h-2A1,1,0,0,1,24,17Z" fill="#d0cfce"/>
  <g stroke="#000" stroke-width="2">
    <rect x="15" y="15" width="3" height="3" fill="none"/>
    <rect x="23" y="15" width="3" height="3" fill="none"/>
  </g>
</svg>
