<svg version="1.1" id="Layer_1" xmlns="http://www.w3.org/2000/svg" xmlns:xlink="http://www.w3.org/1999/xlink" x="0px" y="0px"
	 width="100%" viewBox="0 0 400 400" enable-background="new 0 0 400 400" xml:space="preserve">
<path fill="none" opacity="1.000000" stroke="#000000" stroke-linecap="round" stroke-linejoin="round" stroke-width="13.000000"
	d="
M300.500000,234.500000 
	C304.038544,234.874756 305.971985,233.534393 307.670074,230.083694 
	C310.300903,224.737534 312.861969,219.342407 315.583252,214.042740 
	C320.777191,203.927444 322.346771,193.095810 322.995483,181.999741 
	C324.204773,161.314178 319.983185,141.980087 308.466766,124.521919 
	C307.184723,122.578423 307.542053,119.477989 304.500000,118.750000 
"/>
<path fill="none" opacity="1.000000" stroke="#000000" stroke-linecap="round" stroke-linejoin="round" stroke-width="11.000000"
	d="
M70.000000,117.250000 
	C65.750534,118.140305 63.953991,122.301186 62.803051,125.123581 
	C59.472206,133.291580 54.606701,140.757690 52.386627,149.471115 
	C48.966499,162.894577 48.800659,176.442169 50.112198,189.989136 
	C51.620152,205.564804 58.378853,219.354370 66.529922,232.481415 
	C67.135277,233.456314 68.166664,234.166672 68.999992,235.000000 
"/>
<path fill="none" opacity="1.000000" stroke="#000000" stroke-linecap="round" stroke-linejoin="round" stroke-width="8.000000"
	d="
M220.500000,223.500000 
	C198.500000,223.500000 176.500000,223.500000 154.500000,223.500000 
"/>
<path fill="none" opacity="1.000000" stroke="#000000" stroke-linecap="round" stroke-linejoin="round" stroke-width="13.000000"
	d="
M253.000000,124.000000 
	C237.799911,128.543106 234.674011,141.425262 232.623032,154.519272 
	C230.606888,167.390732 231.960876,180.038010 236.309174,192.566238 
	C239.263000,201.076675 249.820404,208.754166 258.491058,207.908432 
	C265.937958,207.182068 272.045044,203.440659 275.945068,196.966904 
	C280.817566,188.878860 282.817688,179.955963 282.515991,170.499496 
	C282.298035,163.668015 283.147339,156.768784 281.925720,150.013428 
	C280.744019,143.478729 279.161621,136.872665 274.938507,131.548782 
	C269.481781,124.669746 261.726654,123.461388 253.500000,124.000000 
"/>
<path fill="none" opacity="1.000000" stroke="#000000" stroke-linecap="round" stroke-linejoin="round" stroke-width="12.000000"
	d="
M106.000000,145.500000 
	C99.214821,148.603195 93.501869,152.905762 90.518188,160.007645 
	C85.350189,172.308762 85.846184,194.032852 97.902512,203.129211 
	C110.197548,212.405670 129.464539,207.851028 135.043091,194.017380 
	C140.049911,181.601532 140.891556,169.182693 134.883865,157.057541 
	C131.383881,149.993607 125.228104,145.805359 116.999298,145.520233 
	C113.503494,145.399109 110.000000,145.500000 106.500000,145.500000 
"/>
</svg>